PathFileType	4	(X/Y/Z)	C:/Users/beibeiliu/ov580/test_trc/capture2\sequence.6_training_dense_left.trc
DataRate	CameraRate	NumFrames	NumMarkers	Units	OrigDataRate	OrigDataStartFrame	OrigNumFrames
120	120	10	19	mm	120	89	353
Frame#	Time	ThumbCMC			ThumbMCP			ThumbIP			ThumbTip			IndexMCP			IndexPIP			IndexTip			MiddleMCP			MiddlePIP			MiddleTip			RingMCP			RingPIP			RingTip			PinkyMCP			PinkyPIP			PinkyTip			BackHand1			BackHand2			BackHand3	
		X0	Y0	Z0	X1	Y1	Z1	X2	Y2	Z2	X3	Y3	Z3	X4	Y4	Z4	X5	Y5	Z5	X6	Y6	Z6	X7	Y7	Z7	X8	Y8	Z8	X9	Y9	Z9	X10	Y10	Z10	X11	Y11	Z11	X12	Y12	Z12	X13	Y13	Z13	X14	Y14	Z14	X15	Y15	Z15	X16	Y16	Z16	X17	Y17	Z17	X18	Y18	Z18	
88	0.733333	-136.59	86.0299	-33.3637	-110.882	79.2213	-54.0588	-98.0922	71.5304	-82.4406	-104.487	47.0704	-97.1413	-160.318	75.1455	-100.007	-146.995	70.7223	-131.651	-122.483	59.2968	-139.669	-138.96	51.5476	-105.578	-109.433	49.8005	-95.4713	-116.579	58.7917	-63.8199	-136.395	33.1479	-91.0777	-109.868	38.819	-77.2629	-123.836	48.6969	-48.0288	-137.06	22.8884	-81.2912	-115.364	29.5874	-63.7166	-130.798	39.6556	-37.5506	-178.808	40.4436	-53.1853	-182.377	41.4786	-23.5774	-174.068	73.9148	-43.6058	
89	0.741667	-135.333	84.8247	-32.4796	-110.945	78.2852	-54.0632	-101.035	69.4648	-80.2045	-102.846	52.3174	-96.6886	-159.772	77.7305	-99.9572	-145.792	71.0629	-128.804	-115.329	63.671	-133.418	-140.816	54.8466	-105.951	-110.563	52.9784	-97.6714	-118.642	57.771	-63.1429	-136.87	38.2505	-93.5156	-110.372	37.5704	-76.9856	-124.879	50.9852	-50.0259	-141.038	20.9222	-81.477	-117.189	29.5792	-63.4593	-133.82	44.8837	-40.2806	-179.42	40.5397	-53.8027	-183.553	42.797	-22.8841	-174.296	76.7683	-41.9634	
90	0.75	-132.979	87.8907	-29.9504	-110.781	76.8592	-54.118	-97.4203	70.7149	-82.6217	-106.387	50.0312	-98.837	-160.423	79.151	-98.16	-149.377	72.5532	-127.131	-115.45	62.062	-128.686	-144.405	59.0276	-102.96	-113.379	51.6401	-101.463	-120.661	58.6124	-63.4976	-140.852	41.1934	-93.807	-111.794	38.8413	-78.4612	-129.725	50.2654	-47.7524	-138.852	22.7068	-83.3351	-118.318	30.4869	-67.0254	-131.098	44.1065	-42.12	-178.337	48.3965	-54.4295	-182.387	44.9628	-25.7333	-173.957	81.1979	-40.1282	
91	0.758333	-132.596	88.6297	-31.5553	-107.217	79.0557	-54.5585	-96.5418	70.7319	-79.5804	-104.15	51.4445	-97.1905	-159.175	83.3636	-104.154	-148.073	73.4596	-128.051	-117.995	63.0556	-132.159	-144.396	62.2155	-103.882	-111.387	53.0432	-97.9902	-120.537	58.4867	-63.6701	-136.691	40.2955	-97.1007	-113.718	36.2594	-78.9839	-128.514	48.0207	-50.0525	-145.26	25.7255	-82.9504	-119.892	28.5183	-64.9637	-134.161	43.7093	-38.6	-180.347	50.18	-56.8543	-184.353	50.0585	-27.5795	-172.112	80.0462	-42.8479	
92	0.766667	-132.399	87.4849	-31.5261	-109.9	75.7411	-52.9301	-98.1791	68.7708	-82.0358	-107.583	48.4257	-97.0371	-158.103	83.0188	-100.804	-148.08	76.0191	-131.085	-124.249	62.9782	-139.1	-144.309	57.6011	-105.255	-113.917	49.0322	-98.8298	-120.936	59.9364	-63.1315	-139.459	38.0951	-95.8755	-114.549	36.8229	-76.6132	-127.117	50.3425	-50.9469	-144.028	24.2465	-84.3966	-120.973	29.105	-65.7333	-136.444	46.5495	-40.8668	-181.517	47.8624	-56.8711	-184.508	52.8518	-23.9472	-173.216	78.0178	-39.8505	
93	0.775	-133.14	86.3462	-32.5732	-109.287	75.1327	-57.4102	-99.6836	66.5731	-78.7518	-103.641	49.0455	-99.967	-156.873	88.2364	-101.496	-149.356	81.4407	-130.93	-125.909	67.3285	-148.685	-139.982	59.8348	-107.683	-113.021	49.7757	-99.8233	-121.718	55.6391	-63.5095	-137.85	37.5772	-96.1086	-116.336	36.3186	-78.1559	-130.538	53.5077	-50.5608	-145.021	28.3677	-84.9653	-122.517	31.2622	-65.1109	-139.544	47.2753	-41.1106	-182.463	54.4229	-58.8328	-183.614	56.1047	-27.5236	-173.638	82.6475	-42.1808	
94	0.783333	-135.088	86.1244	-33.3685	-106.044	76.9051	-56.5408	-97.9061	65.7893	-83.9837	-106.56	47.9395	-98.3258	-154.327	89.5685	-107.089	-149.239	80.7191	-132.287	-132.953	70.4432	-151.914	-139.709	61.3596	-108.459	-111.843	50.5713	-97.6595	-123.521	56.1596	-61.5693	-139.85	39.693	-95.8935	-117.247	38.0025	-78.2614	-133.922	51.683	-47.9022	-146.221	29.0246	-84.2213	-126.048	25.9828	-63.8891	-139.915	46.9436	-38.4841	-181.225	56.3963	-58.4828	-187.039	57.8461	-28.5325	-173.301	82.6798	-44.0361	
95	0.791667	-134.165	86.7232	-35.2017	-106.993	75.755	-55.3255	-102.042	64.2639	-83.6323	-105.52	46.5004	-100.559	-154.339	89.4272	-109.588	-148.28	81.4833	-135.142	-134.934	69.1086	-157.732	-142.238	57.8164	-108.632	-114.876	48.0115	-101.352	-124.325	54.519	-63.0035	-141.893	38.2056	-95.6953	-120.464	34.6317	-78.2127	-132.89	49.4452	-50.1427	-151.621	25.5736	-84.4444	-128.15	29.7266	-60.4152	-141.255	49.3202	-40.9764	-185.277	56.8033	-62.7906	-185.723	60.4951	-28.9492	-171.673	90.0557	-46.1778	
96	0.8	-132.271	86.8588	-37.1573	-109.932	73.2422	-58.9743	-98.5633	62.2794	-86.8622	-111.311	43.9758	-101.339	-152.173	91.0756	-107.45	-145.655	88.0484	-135.508	-137.677	74.0474	-159.943	-144.831	59.9997	-106.196	-116.93	44.5401	-98.6864	-122.92	53.0325	-64.5477	-142.972	42.6707	-97.5743	-120.634	36.3386	-76.9615	-135.115	50.1305	-50.6754	-149.798	29.1922	-85.9363	-130.705	30.3478	-63.3939	-143.595	45.5468	-39.8876	-185.707	58.9785	-62.6938	-190.484	62.1467	-32.1247	-168.876	90.9901	-43.8796	
97	0.808333	-131.553	85.2049	-36.5742	-108.008	71.0539	-57.9609	-102.018	59.76	-82.0466	-113.415	41.2098	-103.872	-150	94.0669	-105.289	-143.539	89.2195	-136.75	-137.028	78.7126	-160.939	-145.662	59.4261	-107.442	-117.156	44.7883	-98.8685	-123.289	54.6381	-65.0751	-145.59	42.9103	-98.5784	-124.767	31.795	-78.4991	-136.817	48.3337	-51.0048	-153.775	29.9486	-87.4252	-132.076	29.9196	-65.5232	-143.967	46.6612	-40.0888	-185.121	65.7374	-63.3602	-188.927	64.0349	-28.2926	-169.073	90.2838	-47.9178	
